<svg xmlns="http://www.w3.org/2000/svg" version="1.1" xmlns:xlink="http://www.w3.org/1999/xlink" xmlns:svgjs="http://svgjs.dev/svgjs" width="1000" height="1000" viewBox="0 0 1000 1000"><rect width="1000" height="1000" fill="#000000"></rect><g transform="matrix(0.7,0,0,0.7,149.57604290218035,282.1265587044535)"><svg viewBox="0 0 396 247" data-background-color="#f9f9f9" preserveAspectRatio="xMidYMid meet" height="623" width="1000" xmlns="http://www.w3.org/2000/svg" xmlns:xlink="http://www.w3.org/1999/xlink"><g id="tight-bounds" transform="matrix(1,0,0,1,0.23983858676655245,-0.09999999999999432)"><svg viewBox="0 0 395.52 247.2" height="247.2" width="395.52"><g><svg></svg></g><g><svg viewBox="0 0 395.52 247.2" height="247.2" width="395.52"><g transform="matrix(1,0,0,1,0,90.43498821270937)"><svg viewBox="0 0 395.52 66.33002357458125" height="66.33002357458125" width="395.52"><g><svg viewBox="0 0 395.52 66.33002357458125" height="66.33002357458125" width="395.52"><g><svg viewBox="0 0 395.52 66.33002357458125" height="66.33002357458125" width="395.52"><g><svg viewBox="0 0 395.52 66.33002357458125" height="66.33002357458125" width="395.52"><g><svg viewBox="0 0 395.52 66.33002357458125" height="66.33002357458125" width="395.52"><g transform="matrix(1,0,0,1,0,0)"><svg width="395.52" viewBox="1.0582712888717651 -29.365571975708008 234.3715057373047 39.30486297607422" height="66.33002357458125" data-palette-color="#030303"><path d="M28.554-24.013c0.449-0.063 1.045 0.155 1.789 0.657 0.744 0.501 1.146 0.963 1.206 1.385v0c0.277 1.961 0.59 4.657 0.939 8.088v0c0.091 0.835 0.203 1.843 0.336 3.022 0.133 1.18 0.308 2.542 0.527 4.087v0c0.69 4.892 1.486 8.455 2.387 10.691v0c0.083 0.776-0.143 1.373-0.676 1.792-0.533 0.419-1.091 0.669-1.671 0.751v0c-1.281 0.181-2.186-0.153-2.717-1-0.529-0.841-0.912-2.096-1.147-3.766v0c-0.877-6.212-1.621-11.934-2.232-17.167v0c-3.115 4.641-5.505 8.506-7.169 11.596v0c0 0-0.263 0.236-0.789 0.707v0c-0.48 0.559-0.895 0.864-1.245 0.913v0c-0.838 0.118-1.561 0.005-2.169-0.34-0.607-0.339-1.224-0.874-1.852-1.607v0l-2.78-2.95c-1.922-2.025-3.334-3.566-4.238-4.624v0c0.418 2.964 1.128 6.967 2.13 12.011v0c0.644 2.892 1.07 5.077 1.278 6.555v0c0.109 0.772 0.007 1.453-0.307 2.043-0.308 0.582-0.882 0.932-1.72 1.051v0c-0.838 0.118-1.544 0.053-2.118-0.196-0.579-0.241-0.931-0.683-1.056-1.325v0c-0.044-0.553-0.155-1.456-0.332-2.71v0c-0.354-2.508-0.865-5.554-1.532-9.136v0l-0.466-2.59-0.566-3.364c-0.174-0.992-0.371-2.153-0.593-3.482-0.222-1.335-0.444-2.789-0.665-4.359v0c-0.273-1.934 0.637-3.049 2.729-3.345v0c0.64-0.09 1.313-0.02 2.019 0.21 0.706 0.23 1.263 0.626 1.672 1.188v0c0.417 1.092 1.628 2.827 3.633 5.203 2.011 2.369 3.966 4.584 5.867 6.646v0c1.158-2.002 2.123-3.515 2.894-4.539v0c1.322-1.796 2.396-3.439 3.223-4.929 0.819-1.496 1.692-3.279 2.618-5.349v0c0.236-0.424 0.606-0.813 1.108-1.166 0.51-0.348 1.071-0.565 1.685-0.652zM53.021-26.571c2.171-0.193 4.171-0.104 5.997 0.269 1.827 0.373 3.351 1.027 4.572 1.962v0c2.203 1.664 3.817 3.552 4.842 5.663 1.018 2.111 1.678 4.867 1.981 8.267v0c0.063 0.711 0.031 1.366-0.096 1.966-0.128 0.594-0.344 1.363-0.648 2.307v0c-0.395 1.046-0.617 1.865-0.664 2.458v0c-0.544 1.186-1.506 2.363-2.888 3.53-1.382 1.167-2.9 2.152-4.556 2.956-1.662 0.797-3.138 1.253-4.426 1.368v0c-6.249 0.557-10.891-1.182-13.928-5.215v0c-0.851-1.136-1.536-2.333-2.057-3.591-0.52-1.252-0.835-2.496-0.944-3.731v0c-0.294-3.3 0.041-6.225 1.005-8.774 0.964-2.549 2.439-4.594 4.423-6.137v0c1.195-0.856 2.458-1.598 3.788-2.224 1.33-0.62 2.53-0.978 3.599-1.074zM45.269-8.663c0.156 1.746 0.682 3.152 1.58 4.217 0.891 1.058 2.222 2.178 3.994 3.359v0c1.401 0.397 2.35 0.647 2.848 0.75 0.498 0.103 1.055 0.127 1.673 0.072v0c3.267-0.291 5.794-1.413 7.581-3.366 1.78-1.952 2.532-4.482 2.256-7.59v0c-0.219-2.457-0.667-4.375-1.346-5.753-0.678-1.372-1.778-2.562-3.3-3.572v0c-0.798-0.545-1.785-0.912-2.959-1.101-1.175-0.19-2.426-0.226-3.755-0.108v0c-2.005 0.179-3.683 0.924-5.031 2.235-1.356 1.312-2.329 2.938-2.919 4.879-0.596 1.947-0.804 3.94-0.622 5.978zM96.291-25.592c-0.041-0.939 0.143-1.768 0.551-2.486 0.409-0.719 1.05-1.097 1.923-1.135v0c0.746-0.033 1.418 0.085 2.017 0.352 0.599 0.267 0.913 0.741 0.943 1.42v0c0.058 1.332 0.074 3.203 0.046 5.613v0c-0.024 2.343-0.011 4.081 0.038 5.214v0c0.078 1.785 0.246 4.17 0.503 7.154v0c0.258 2.845 0.416 4.933 0.475 6.266v0c0.047 1.072 0.065 1.869 0.054 2.39v0c0.023 0.519-0.238 1.045-0.782 1.575-0.551 0.525-1.409 0.812-2.574 0.864v0c-0.619 0.027-1.154-0.056-1.603-0.25-0.442-0.188-0.752-0.407-0.93-0.66v0c-1.606-1.785-3.965-4.838-7.077-9.16v0c-3.501-4.818-6.348-8.497-8.541-11.037v0c0.362 2.326 0.617 5.178 0.765 8.555v0c0.065 1.492 0.127 3.431 0.185 5.818 0.058 2.386 0.053 3.955-0.015 4.705v0c-0.085 0.951-0.337 1.686-0.754 2.205-0.417 0.525-1.096 0.809-2.035 0.85v0c-0.713 0.031-1.251-0.149-1.615-0.54-0.357-0.391-0.588-1.089-0.692-2.092v0c-0.092-1.331-0.099-3.332-0.023-6.005v0c0.015-0.421 0.03-1.152 0.044-2.194 0.021-1.042 0.014-1.969-0.021-2.781v0c-0.098-2.238-0.323-4.797-0.677-7.678v0c-0.332-3.168-0.532-5.515-0.598-7.041v0c-0.034-0.779 0.223-1.394 0.77-1.845 0.548-0.444 1.198-0.683 1.95-0.716v0c0.646-0.028 1.333 0.105 2.06 0.4v0c2.944 3.381 6.956 8.44 12.035 15.178v0l4.883 6.813c0.011-0.521-0.005-1.254-0.046-2.2v0c-0.072-1.652-0.184-3.435-0.335-5.35-0.15-1.909-0.257-3.205-0.32-3.89v0c-0.297-3.137-0.499-5.907-0.604-8.312zM131.409-7.294c0.001 1.527-0.348 2.834-1.047 3.921-0.699 1.087-1.842 2.088-3.427 3.002v0c-1.073 0.647-2.326 1.135-3.759 1.463-1.426 0.328-2.87 0.492-4.33 0.493v0c-1.493 0.001-3.347-0.484-5.561-1.455v0c-1.594-0.779-2.855-1.704-3.782-2.777-0.921-1.073-1.382-2.242-1.383-3.509v0c-0.001-0.88 0.192-1.52 0.579-1.921 0.393-0.407 1.026-0.611 1.899-0.611v0c0.453 0 0.923 0.186 1.411 0.559 0.494 0.373 0.787 0.736 0.881 1.089v0c0.454 1.333 1.252 2.349 2.392 3.048 1.141 0.699 2.554 1.048 4.241 1.047v0c1.947-0.001 3.58-0.363 4.899-1.084 1.313-0.714 1.969-1.672 1.968-2.871v0c-0.001-1.173-0.715-2.213-2.143-3.119-1.434-0.906-2.898-1.538-4.391-1.896v0c-2.147-0.585-4.048-1.284-5.702-2.096v0c-1.721-0.839-3.005-1.878-3.852-3.117-0.848-1.233-1.272-2.529-1.273-3.889v0c-0.001-1.267 0.438-2.56 1.317-3.881 0.872-1.314 1.912-2.265 3.118-2.852v0c0.646-0.327 1.756-0.678 3.329-1.053 1.58-0.375 2.726-0.562 3.439-0.563v0c0.94-0.001 1.98 0.112 3.121 0.338 1.14 0.226 2.067 0.552 2.78 0.978v0c1.427 0.812 2.481 1.541 3.162 2.187 0.687 0.653 1.031 1.466 1.032 2.44v0c0 0.587-0.219 1.107-0.659 1.56-0.44 0.454-1.196 0.681-2.269 0.682v0c-0.26 0-0.52-0.113-0.781-0.339-0.26-0.226-0.584-0.566-0.97-1.02v0c-0.521-0.686-1.024-1.143-1.511-1.369v0c-0.487-0.16-1.194-0.339-2.121-0.538-0.927-0.193-1.747-0.289-2.46-0.288v0c-0.78 0.001-1.593 0.165-2.44 0.492-0.846 0.327-1.553 0.791-2.119 1.391-0.566 0.6-0.849 1.291-0.848 2.071v0c0.001 0.647 0.301 1.206 0.901 1.679 0.6 0.473 1.324 0.856 2.171 1.149v0c0.974 0.386 2.031 0.725 3.171 1.017v0c1.494 0.452 2.721 0.865 3.681 1.237 0.954 0.373 1.887 0.835 2.801 1.388v0c1.594 0.939 2.748 1.905 3.462 2.898 0.714 0.993 1.072 2.366 1.073 4.119zM151.124-28.675c2.178 0.09 4.149 0.438 5.912 1.045 1.763 0.607 3.189 1.453 4.279 2.538v0c1.969 1.936 3.324 4.017 4.066 6.243 0.736 2.226 1.033 5.044 0.892 8.454v0c-0.029 0.713-0.146 1.358-0.35 1.937-0.204 0.572-0.518 1.306-0.942 2.203v0c-0.528 0.986-0.854 1.77-0.978 2.352v0c-0.693 1.106-1.8 2.148-3.321 3.126-1.522 0.978-3.155 1.758-4.901 2.34-1.752 0.575-3.274 0.836-4.566 0.782v0c-6.268-0.259-10.646-2.584-13.134-6.977v0c-0.696-1.236-1.221-2.512-1.573-3.829-0.353-1.309-0.504-2.583-0.453-3.821v0c0.137-3.311 0.848-6.167 2.135-8.57 1.287-2.402 3.014-4.239 5.182-5.511v0c1.296-0.694 2.644-1.265 4.044-1.714 1.399-0.443 2.635-0.642 3.708-0.598zM141.115-11.924c-0.072 1.752 0.268 3.214 1.02 4.386 0.746 1.165 1.921 2.448 3.524 3.849v0c1.337 0.576 2.246 0.947 2.726 1.113 0.48 0.167 1.03 0.263 1.65 0.288v0c3.277 0.135 5.928-0.649 7.954-2.354 2.019-1.705 3.092-4.116 3.221-7.233v0c0.102-2.465-0.094-4.424-0.588-5.879-0.494-1.448-1.43-2.771-2.809-3.969v0c-0.721-0.644-1.651-1.136-2.792-1.477-1.14-0.341-2.376-0.538-3.708-0.593v0c-2.012-0.083-3.771 0.438-5.279 1.564-1.514 1.125-2.69 2.611-3.527 4.458-0.844 1.853-1.308 3.803-1.392 5.847zM187.323-26.223c2.171 0.194 4.123 0.637 5.854 1.327 1.732 0.691 3.116 1.604 4.153 2.742v0c1.873 2.028 3.127 4.172 3.761 6.431 0.628 2.258 0.789 5.087 0.485 8.487v0c-0.064 0.71-0.211 1.35-0.443 1.918-0.231 0.562-0.58 1.28-1.046 2.155v0c-0.575 0.959-0.938 1.727-1.09 2.302v0c-0.745 1.071-1.901 2.059-3.468 2.963-1.567 0.904-3.236 1.604-5.008 2.101-1.777 0.49-3.31 0.677-4.598 0.562v0c-6.248-0.56-10.509-3.093-12.783-7.6v0c-0.636-1.268-1.099-2.568-1.388-3.899-0.29-1.324-0.379-2.604-0.268-3.84v0c0.296-3.3 1.144-6.119 2.544-8.456 1.401-2.338 3.214-4.09 5.44-5.256v0c1.328-0.631 2.702-1.137 4.122-1.518 1.419-0.375 2.663-0.515 3.733-0.419zM176.52-9.972c-0.156 1.746 0.113 3.223 0.808 4.43 0.689 1.2 1.801 2.537 3.335 4.013v0c1.308 0.639 2.198 1.054 2.67 1.243 0.472 0.189 1.016 0.312 1.634 0.367v0c3.267 0.293 5.953-0.364 8.058-1.969 2.098-1.606 3.287-3.963 3.565-7.07v0c0.22-2.457 0.118-4.424-0.305-5.901-0.424-1.47-1.295-2.837-2.615-4.099v0c-0.689-0.677-1.595-1.214-2.718-1.609-1.123-0.395-2.348-0.652-3.675-0.771v0c-2.005-0.18-3.788 0.257-5.348 1.308-1.567 1.051-2.812 2.479-3.737 4.284-0.932 1.811-1.489 3.735-1.672 5.774zM229.734-17.592c0.126-0.932 0.454-1.715 0.984-2.349 0.53-0.635 1.227-0.894 2.093-0.776v0c0.74 0.1 1.381 0.335 1.923 0.704 0.542 0.369 0.768 0.891 0.676 1.564v0c-0.179 1.321-0.495 3.166-0.95 5.533v0c-0.439 2.302-0.735 4.014-0.886 5.137v0c-0.239 1.771-0.497 4.147-0.773 7.131v0c-0.25 2.845-0.465 4.929-0.643 6.25v0c-0.144 1.064-0.267 1.851-0.37 2.362v0c-0.07 0.515-0.419 0.986-1.048 1.412-0.635 0.419-1.531 0.55-2.687 0.394v0c-0.614-0.083-1.125-0.26-1.533-0.53-0.402-0.263-0.668-0.534-0.798-0.815v0c-1.265-2.041-3.045-5.464-5.342-10.268v0c-2.592-5.362-4.742-9.488-6.45-12.376v0c-0.056 2.354-0.31 5.205-0.764 8.555v0c-0.2 1.48-0.483 3.399-0.849 5.758-0.366 2.359-0.649 3.902-0.847 4.628v0c-0.252 0.921-0.63 1.6-1.134 2.037-0.504 0.443-1.222 0.602-2.153 0.476v0c-0.707-0.096-1.205-0.368-1.494-0.818-0.282-0.449-0.386-1.176-0.31-2.181v0c0.146-1.326 0.493-3.297 1.042-5.914v0c0.089-0.412 0.233-1.129 0.432-2.151 0.205-1.022 0.363-1.936 0.471-2.742v0c0.3-2.22 0.532-4.779 0.695-7.676v0c0.234-3.177 0.454-5.522 0.659-7.035v0c0.105-0.773 0.466-1.333 1.085-1.68 0.618-0.34 1.3-0.46 2.046-0.359v0c0.641 0.087 1.293 0.34 1.956 0.759v0c2.298 3.849 5.35 9.54 9.155 17.071v0l3.598 7.57c0.103-0.511 0.217-1.235 0.345-2.173v0c0.222-1.638 0.428-3.413 0.619-5.326 0.19-1.905 0.315-3.2 0.374-3.884v0c0.263-3.14 0.556-5.902 0.878-8.288z" opacity="1" transform="matrix(1,0,0,1,0,0)" fill="#ffffff" class="undefined-text-0" data-fill-palette-color="primary" id="text-0"></path></svg></g></svg></g></svg></g></svg></g><g></g></svg></g></svg></g><g mask="url(#971cc3fc-8081-47ab-8dd5-09d83062eb4e)"><g transform="matrix(0.8869275139689163, 0, 0, 0.8869275139689163, 75.16001353343984, 1)"><svg xmlns="http://www.w3.org/2000/svg" data-name="Layer 1" viewBox="61.77000045776367 61.77000427246094 276.4599914550781 276.46002197265625" x="0" y="0" height="276.46002197265625" width="276.4599914550781" class="icon-none" data-fill-palette-color="accent" id="none"><path d="M332.7 279.93a5.53 5.53 0 0 1-5.53-5.53V211.88c0-76.67-57-139.05-127.17-139.05S72.83 135.21 72.83 211.88V274.4a5.53 5.53 0 1 1-11.06 0V211.88c0-82.77 62-150.11 138.23-150.11s138.23 67.34 138.23 150.11V274.4A5.53 5.53 0 0 1 332.7 279.93Z" fill="#ffffff" data-fill-palette-color="accent"></path><path d="M111 338.23c-27.13 0-49.21-26.65-49.21-59.41S83.84 219.41 111 219.41A41.05 41.05 0 0 1 127.25 223a5.53 5.53 0 0 1 3.36 5.09V329.58a5.53 5.53 0 0 1-3.38 5.09A41.42 41.42 0 0 1 111 338.23Zm0-107.76c-21 0-38.15 21.69-38.15 48.35S89.94 327.17 111 327.17a28 28 0 0 0 8.58-1.43V231.89A27.93 27.93 0 0 0 111 230.47Z" fill="#ffffff" data-fill-palette-color="accent"></path><path d="M289 338.23a41.18 41.18 0 0 1-16.26-3.56 5.53 5.53 0 0 1-3.37-5.09V228.06a5.53 5.53 0 0 1 3.35-5.08A40.82 40.82 0 0 1 289 219.41c27.12 0 49.19 26.65 49.19 59.41S316.16 338.23 289 338.23Zm-8.57-12.48a27.93 27.93 0 0 0 8.57 1.42c21 0 38.13-21.69 38.13-48.35S310.07 230.47 289 230.47a27.82 27.82 0 0 0-8.57 1.41v93.86Z" fill="#ffffff" data-fill-palette-color="accent"></path></svg></g></g></svg></g><defs><mask id="971cc3fc-8081-47ab-8dd5-09d83062eb4e"><rect width="640" height="400" fill="white"></rect><rect width="435.072" height="77.09676578760619" fill="black" x="102.464" y="161.45161710619692" id="transform-me" transform="matrix(1,0,0,1,-122.24000000000001,-76.4)"></rect></mask></defs></svg><rect width="395.52" height="247.2" fill="none" stroke="none" visibility="hidden"></rect></g></svg></g></svg>